<svg xmlns="http://www.w3.org/2000/svg" viewBox="0 0 40 40" xml:space="preserve">
  <g transform="scale(.4)">
    <path d="M56.729 36.694c3.786 0 6.854 3.069 6.854 6.854v13.404c0 3.786-3.069 6.854-6.854 6.854H43.325c-3.786 0-6.854-3.069-6.854-6.854V43.548c0-3.786 3.069-6.854 6.854-6.854h13.404m0-1.5H43.325c-4.607 0-8.354 3.748-8.354 8.354v13.404c0 4.607 3.748 8.354 8.354 8.354h13.404c4.607 0 8.354-3.748 8.354-8.354V43.548c0-4.607-3.747-8.354-8.354-8.354z" fill="#FFBC5E"/>
    <path d="M54.78 41.018c2.47 0 4.479 2.009 4.479 4.479v9.506c0 2.47-2.009 4.479-4.479 4.479h-9.506c-2.47 0-4.479-2.009-4.479-4.479v-9.506c0-2.47 2.009-4.479 4.479-4.479h9.506m0-1h-9.506c-3.026 0-5.479 2.453-5.479 5.479v9.506c0 3.026 2.453 5.479 5.479 5.479h9.506c3.026 0 5.479-2.453 5.479-5.479v-9.506c0-3.026-2.453-5.479-5.479-5.479z" fill="#FFBC5E"/>
    <circle cx="43.795" cy="44.018" r=".896" fill="#FFBC5E"/>
    <circle cx="56.259" cy="44.018" r=".896" fill="#FFBC5E"/>
    <circle cx="56.259" cy="56.482" r=".896" fill="#FFBC5E"/>
    <circle cx="43.795" cy="56.482" r=".896" fill="#FFBC5E"/>
    <path d="M51.351 36.069h-2.684c-.207 0-.375-.168-.375-.375V34.5c0-.207.168-.375.375-.375h2.684c.207 0 .375.168.375.375v1.194c0 .207-.168.375-.375.375zm-2.309-.75h1.934v-.444h-1.934v.444zm10.105.75h-2.684c-.207 0-.375-.168-.375-.375V34.5c0-.207.168-.375.375-.375h2.684c.207 0 .375.168.375.375v1.194c0 .207-.168.375-.375.375zm-2.308-.75h1.934v-.444h-1.934v.444zm-13.286.75H40.87c-.207 0-.375-.168-.375-.375V34.5c0-.207.168-.375.375-.375h2.683c.207 0 .375.168.375.375v1.194c0 .207-.168.375-.375.375zm-2.308-.75h1.933v-.444h-1.933v.444zm6.206.75h-2.683c-.207 0-.375-.168-.375-.375V34.5c0-.207.168-.375.375-.375h2.683c.207 0 .375.168.375.375v1.194c0 .207-.168.375-.375.375zm-2.307-.75h1.933v-.444h-1.933v.444zm10.105.75h-2.684c-.207 0-.375-.168-.375-.375V34.5c0-.207.168-.375.375-.375h2.684c.207 0 .375.168.375.375v1.194c0 .207-.168.375-.375.375zm-2.309-.75h1.934v-.444H52.94v.444zm-1.589 31.056h-2.684c-.207 0-.375-.168-.375-.375v-1.193c0-.207.168-.375.375-.375h2.684c.207 0 .375.168.375.375V66c0 .207-.168.375-.375.375zm-2.309-.75h1.934v-.443h-1.934v.443zm10.105.75h-2.684c-.207 0-.375-.168-.375-.375v-1.193c0-.207.168-.375.375-.375h2.684c.207 0 .375.168.375.375V66c0 .207-.168.375-.375.375zm-2.308-.75h1.934v-.443h-1.934v.443zm-13.286.75H40.87c-.207 0-.375-.168-.375-.375v-1.193c0-.207.168-.375.375-.375h2.683c.207 0 .375.168.375.375V66c0 .207-.168.375-.375.375zm-2.308-.75h1.933v-.443h-1.933v.443zm6.206.75h-2.683c-.207 0-.375-.168-.375-.375v-1.193c0-.207.168-.375.375-.375h2.683c.207 0 .375.168.375.375V66c0 .207-.168.375-.375.375zm-2.307-.75h1.933v-.443h-1.933v.443zm10.105.75h-2.684c-.207 0-.375-.168-.375-.375v-1.193c0-.207.168-.375.375-.375h2.684c.207 0 .375.168.375.375V66c0 .207-.168.375-.375.375zm-2.309-.75h1.934v-.443H52.94v.443zm12.837-13.829h-1.194c-.207 0-.375-.168-.375-.375v-2.683c0-.207.168-.375.375-.375h1.194c.207 0 .375.168.375.375v2.683c0 .207-.168.375-.375.375zm-.819-.75h.444v-1.933h-.444v1.933zm.819-7.047h-1.194c-.207 0-.375-.168-.375-.375v-2.683c0-.207.168-.375.375-.375h1.194c.207 0 .375.168.375.375v2.683c0 .207-.168.375-.375.375zm-.819-.75h.444v-1.933h-.444v1.933zm.819 16.344h-1.194c-.207 0-.375-.168-.375-.375v-2.683c0-.207.168-.375.375-.375h1.194c.207 0 .375.168.375.375v2.683c0 .207-.168.375-.375.375zm-.819-.75h.444V56.91h-.444v1.933zm.819-3.149h-1.194c-.207 0-.375-.168-.375-.375v-2.683c0-.207.168-.375.375-.375h1.194c.207 0 .375.168.375.375v2.683c0 .207-.168.375-.375.375zm-.819-.75h.444v-1.933h-.444v1.933zm.819-7.047h-1.194c-.207 0-.375-.168-.375-.375v-2.683c0-.207.168-.375.375-.375h1.194c.207 0 .375.168.375.375v2.683c0 .207-.168.375-.375.375zm-.819-.75h.444v-1.933h-.444v1.933zm-29.487 4.82h-1.193c-.207 0-.375-.168-.375-.375v-2.683c0-.207.168-.375.375-.375h1.193c.207 0 .375.168.375.375v2.683c0 .207-.168.375-.375.375zm-.819-.75h.443v-1.933h-.443v1.933zm.819-7.048h-1.193c-.207 0-.375-.168-.375-.375v-2.683c0-.207.168-.375.375-.375h1.193c.207 0 .375.168.375.375v2.683c0 .207-.168.375-.375.375zm-.819-.75h.443v-1.933h-.443v1.933zm.819 16.345h-1.193c-.207 0-.375-.168-.375-.375v-2.684c0-.207.168-.375.375-.375h1.193c.207 0 .375.168.375.375v2.684c0 .207-.168.375-.375.375zm-.819-.75h.443V57.08h-.443v1.934zm.819-3.149h-1.193c-.207 0-.375-.168-.375-.375v-2.684c0-.207.168-.375.375-.375h1.193c.207 0 .375.168.375.375v2.684c0 .207-.168.375-.375.375zm-.819-.75h.443v-1.934h-.443v1.934zm.819-7.047h-1.193c-.207 0-.375-.168-.375-.375V45.01c0-.207.168-.375.375-.375h1.193c.207 0 .375.168.375.375v2.683c0 .207-.168.375-.375.375zm-.819-.75h.443v-1.933h-.443v1.933z" fill="#FFBC5E"/>
    <path d="m42.531 34.502-.75-.005.055-8.282-3.623-4.451c-.055-.067-.084-.15-.084-.237V10.653h.75v10.742l3.624 4.452c.055.067.085.152.084.239l-.056 8.416zm3.954-.19h-.75V21.046l-2.761-4.345.633-.402 2.819 4.438c.038.06.059.13.059.201v13.374zm3.917.188h-.75V23.312c0-.061.015-.121.043-.175l2.495-4.73V8.5h.75v10c0 .061-.015.121-.043.175l-2.495 4.73V34.5zm3.771.265-.266-.265v-.375.375l-.372-.04c.019-.272.009-5.208-.003-8.458 0-.064.016-.128.048-.184l2.623-4.709.654.365-2.575 4.623c.03 8.528.03 8.528-.109 8.668zm4.008-.265h-.75v-7.062c0-.065.017-.129.049-.186l2.333-4.101v-5.713c0-.063.016-.125.046-.181l2.438-4.438.658.361-2.392 4.353v5.716c0 .065-.017.129-.049.186l-2.333 4.101V34.5zm16.507 8.157h-8.91v-.75h8.796l4.53-3.031.418.623-4.625 3.095c-.063.041-.135.063-.209.063zm6.874 3.899H65.777v-.75H81.47l5.794-3.014.346.665-5.875 3.056c-.053.029-.112.043-.173.043zm10.355 6.456H81.104c-.053 0-.104-.011-.153-.032l-5.643-2.525h-9.531v-.75h9.611c.053 0 .104.011.153.033l5.643 2.524h10.732v.75zm-25.792.591h9.264v.75h-9.264zm18.213 7.215-5.255-2.566H65.777v-.75H79.17c.057 0 .113.013.165.038l5.333 2.604-.33.674zM52.94 86.364h-.75v-6.896l-2.516-4.404c-.033-.057-.05-.12-.05-.186V66h.75v8.779l2.516 4.404c.033.057.05.12.05.186v6.995zm5.562 4.405h-.75v-8.96l-4.162-6.644c-.038-.06-.058-.129-.058-.199V66h.75v8.858l4.162 6.644c.038.06.058.129.058.199v9.068zM57.431 66h.75v7.138h-.75zM44.29 87.314h-.75v-3.109c0-.056.013-.111.037-.162l2.158-4.499V66h.75v13.629c0 .056-.013.111-.037.162L44.29 84.29v3.024zm-4.462-6.133-.656-.361 2.609-4.733V66h.75v10.183c0 .063-.016.126-.047.181l-2.656 4.817zm-5.551-30.556H26.75c-.049 0-.098-.01-.143-.028l-3.667-1.512.285-.693 3.599 1.484h7.453v.749zm0-3.898h-8.194c-.06 0-.118-.014-.171-.041l-4.919-2.516h-5.826v-.75h5.916c.06 0 .118.014.171.041l4.919 2.516h8.104v.75zm0-3.899h-7.61c-.065 0-.131-.017-.188-.05l-8.497-4.903H9.25v-.75h8.833c.065 0 .131.017.188.05l8.497 4.903h7.51v.75zm0 11.695H16c-.068 0-.136-.019-.194-.055l-4.5-2.728.389-.641 4.41 2.673h18.173v.751zM16.639 63.22l-.443-.605 6.639-4.87c.064-.047.142-.072.222-.072h11.222v.75h-11.1l-6.54 4.797z" fill="#FFDB6E"/>
  </g>
</svg>
